<svg xmlns="http://www.w3.org/2000/svg" width="512" height="512"><path d="M191.137 57.268C201.686 65.028 209.451 75.99 212 89c.054 2.333.067 4.668 0 7 8.614-4.978 16.77-10.083 24.512-16.348C239 78 239 78 243 78c1.632 1.14 1.632 1.14 3.252 2.771l1.878 1.862 2.025 2.068 2.16 2.158c2.357 2.36 4.7 4.735 7.044 7.11q2.445 2.456 4.893 4.91c4.297 4.311 8.58 8.635 12.863 12.961 4.37 4.41 8.75 8.81 13.131 13.21Q303.14 138.01 316 151c-1.845 3.857-4.228 7.188-6.75 10.625-4.074 5.617-7.825 11.333-11.25 17.375l3.148.883c8.34 2.419 15.707 5.02 22.852 10.117l3.125 2.188c9.6 8.538 16.193 21.325 17.113 34.125.297 14.745-3.568 27.892-13.422 39.19-12.637 12.265-27.301 15.363-44.253 16.622l-3.198.262A218 218 0 0 1 263 283l-.7 2.535c-1.538 4.1-3.615 7.331-6.112 10.903l-1.464 2.102c-14.85 20.935-33.44 37.475-55.974 49.773-.703.39-1.406.782-2.13 1.186-2.686 1.405-4.887 2.518-7.96 2.448-3.767-1.34-6.102-3.85-8.842-6.648l-1.832-1.822c-2.026-2.019-4.036-4.051-6.048-6.085l-4.347-4.345c-3.936-3.935-7.86-7.882-11.782-11.832-4.099-4.124-8.21-8.238-12.32-12.352a18593 18593 0 0 1-23.32-23.406 27115 27115 0 0 0-26.554-26.64A59724 59724 0 0 1 39 204q.951-2.16 1.906-4.316l1.073-2.428C54.792 168.957 80.413 143.793 108 130c1.408-3.776 1.372-7.927 1.648-11.914l.36-4.746q.278-3.713.539-7.424C111.757 88.777 114.839 73.3 128 61c18.046-14.851 43.531-17.15 63.137-3.732M146 88c-3.64 5.623-3.751 11.372-4.187 17.875l-.249 3.242q-.299 3.94-.564 7.883c20.044-3.785 20.044-3.785 40-8 .082-2.376.14-4.749.188-7.125l.076-2.016c.085-5.816-1.237-9.681-5.201-13.941L174 84.188l-2.062-1.77c-8.759-6.41-19.646-1.73-25.938 5.582m138 125c-1.115 2.419-1.115 2.419-1.512 5.348l-.607 3.275-.568 3.44-1.2 6.66-.56 3.238c-.62 3.409-1.372 6.77-2.197 10.134-.479 2.237-.479 2.237-.356 5.905 3.001-.088 6-.195 9-.312l2.543-.069c6.964-.297 12.789-1.366 18.27-5.994 4.694-5.634 6.795-10.206 6.187-17.625-2.3-7.18-6.975-11.73-13.437-15.375-5.46-1.332-10.531-1.314-15.563 1.375"/><path d="m427 40 3.629.996c25.849 7.79 48.017 24.632 61.398 48.183 16.4 30.7 12.251 65.199 9.583 98.527-.34 4.274-.67 8.548-1 12.822q-.832 10.73-1.682 21.46a20232 20232 0 0 0-2.364 30.192 31163 31163 0 0 1-3.516 44.894c-.601 7.651-1.238 15.294-2.048 22.926l-3.75-1.25-2.488-.824a473 473 0 0 1-5.68-1.946c-19.116-6.602-39.198-8.636-58.082.02-15.252 7.638-25.578 19.576-31 35.75-4.18 13.81-3.074 27.263 3.473 40.148 6.838 11.801 16.682 17.592 29.41 21.711 12.273 2.265 24.362.214 34.93-6.421C469.4 398.826 475.22 388.895 478 375l1-14h-29v12c-2.078 5.54-3.93 8.75-9 12-5.4 1.8-10.936 1.701-16.312-.125-4.126-2.879-7.066-6.009-8.688-10.875-.934-10.201.78-17.315 7.25-25.25 4.865-5.242 10.46-9.276 17.726-9.927 18.935-.558 34.937 3.172 49.774 15.74 12.293 11.827 20.924 28.97 21.586 46.125.372 25.73-6.063 46.096-23.93 65.066-17.612 16.964-39.577 22.967-63.523 22.562-25.91-1.007-47.022-13.627-64.508-32.066-16.922-19.34-24.83-44.895-23.156-70.348 1.832-17.88 8.692-34.3 15.41-50.804q1.29-3.194 2.578-6.392 2.741-6.796 5.496-13.588 4.33-10.685 8.639-21.378 5.17-12.82 10.348-25.637 12.147-30.06 24.209-60.152a11894 11894 0 0 1 7.008-17.445q2.168-5.394 4.329-10.792.99-2.466 1.983-4.929c10.086-23.645 10.086-23.645 6.746-48.328-3.5-7.44-7.41-12.901-14.359-17.37-6.969-4.818-12.687-10.793-18.614-16.802l-3.656-3.67c-3.18-3.19-6.35-6.39-9.519-9.592-3.246-3.277-6.5-6.545-9.755-9.814A10992 10992 0 0 1 349 50l1-3a63 63 0 0 1 6.938-2.937l2.184-.782A300 300 0 0 1 366 41l2.069-.664c18.42-5.615 40.469-5.758 58.931-.336M26 232c3.892 1.585 6.513 4.239 9.416 7.176l1.62 1.614c1.788 1.785 3.57 3.578 5.352 5.37l3.844 3.844a6846 6846 0 0 1 10.424 10.45q5.447 5.46 10.899 10.914 10.322 10.333 20.633 20.676 11.742 11.772 23.492 23.535A93317 93317 0 0 1 160 364c-1.41 2.819-3.075 3.08-5.96 4.307l-3.207 1.375-3.497 1.474-3.578 1.524a2570 2570 0 0 1-7.52 3.188q-4.8 2.027-9.593 4.075c-3.06 1.305-6.122 2.602-9.184 3.9l-3.46 1.475-3.265 1.375-2.85 1.207c-3.262 1.244-6.52 2.183-9.886 3.1a15696 15696 0 0 1-38.385-38.022 6754 6754 0 0 0-17.82-17.655A4165 4165 0 0 1 26.27 319.93a1515 1515 0 0 0-8.228-8.146 965 965 0 0 1-7.729-7.678 460 460 0 0 0-4.22-4.14L3.6 297.442l-2.193-2.173C0 293 0 293 .204 289.907c.865-3.158 1.987-5.981 3.35-8.958l1.6-3.522 1.721-3.74q1.324-2.904 2.642-5.81l1.802-3.961c3.535-7.765 6.94-15.585 10.34-23.41.428-.976.854-1.953 1.294-2.96l1.13-2.598C25 233 25 233 26 232"/><path d="M282 24c3.105 1.382 5.23 2.977 7.632 5.371l2.133 2.112 2.308 2.316 2.455 2.439a3734 3734 0 0 1 8.019 8.008l5.565 5.553q5.83 5.82 11.651 11.649a6267 6267 0 0 0 13.49 13.462q6.494 6.467 12.972 12.952 2.76 2.76 5.526 5.51 3.856 3.842 7.693 7.7l2.333 2.31 2.099 2.12 1.839 1.838C369 109 369 109 369 112l-1.984 1.031C359.687 116.923 352.85 121.33 346 126a3028 3028 0 0 1-4.695 3.133l-2.446 1.63L337 132a12967 12967 0 0 1-29.388-29.13 5725 5725 0 0 0-13.644-13.525 3929 3929 0 0 1-13.15-13.052 1340 1340 0 0 0-5.034-4.98c-2.35-2.314-4.683-4.642-7.013-6.974l-2.136-2.082-1.908-1.929-1.679-1.665C262 57 262 57 262.26 54.913c.85-2.196 1.919-3.947 3.252-5.89l1.54-2.27 1.635-2.378c3.947-5.817 7.799-11.638 11.325-17.723C281 25 281 25 282 24"/></svg>