<?xml version="1.0" standalone="no"?>
<!DOCTYPE svg PUBLIC "-//W3C//DTD SVG 20010904//EN"
 "http://www.w3.org/TR/2001/REC-SVG-20010904/DTD/svg10.dtd">
<svg version="1.0" xmlns="http://www.w3.org/2000/svg"
 width="512.000000pt" height="512.000000pt" viewBox="0 0 512.000000 512.000000"
 preserveAspectRatio="xMidYMid meet">

<g transform="translate(0.000000,512.000000) scale(0.100000,-0.100000)"
fill="#000000" stroke="none">
<path d="M1151 4503 l-43 -4 5 -37 c4 -20 13 -73 21 -117 18 -96 20 -252 4
-309 -16 -55 -43 -93 -80 -112 -31 -16 -31 -16 -24 8 16 58 17 188 2 288 -22
146 -48 250 -61 250 -26 0 -278 -97 -304 -117 -3 -2 23 -58 57 -126 33 -67 68
-150 76 -183 23 -89 21 -179 -4 -219 -30 -49 -50 -53 -50 -9 0 69 -35 171
-107 316 -41 82 -79 148 -84 148 -6 0 -41 -25 -79 -55 -456 -364 -622 -1177
-338 -1660 49 -84 218 -254 301 -304 119 -71 171 -86 292 -86 105 0 114 2 179
34 140 68 251 206 276 340 23 122 -34 281 -140 395 -70 75 -145 120 -160 96
-15 -23 -12 -129 5 -193 8 -32 15 -76 15 -97 0 -34 -4 -41 -25 -46 -61 -15
-195 25 -269 82 -186 141 -134 417 125 671 161 157 267 213 404 213 166 0 339
-107 486 -301 106 -140 108 -137 -43 -60 -368 188 -577 222 -693 116 -43 -40
-34 -68 48 -154 40 -42 92 -101 114 -131 23 -30 77 -82 119 -115 196 -151 274
-218 293 -249 19 -31 21 -43 15 -147 -17 -301 87 -567 363 -931 41 -55 85
-120 99 -146 13 -26 44 -128 68 -227 58 -232 97 -350 149 -449 49 -94 141
-192 209 -225 104 -50 272 -50 376 0 68 33 160 131 209 225 52 99 91 217 149
449 24 99 55 201 68 227 14 26 58 91 99 146 276 364 380 630 363 931 -6 101
-4 117 13 145 21 33 87 93 191 171 137 102 187 147 225 198 21 28 72 86 112
128 82 86 91 114 48 154 -115 106 -326 71 -693 -116 -128 -65 -132 -67 -115
-38 33 56 150 195 206 245 117 104 232 154 352 154 137 0 243 -56 404 -213
215 -211 289 -434 196 -592 -31 -54 -75 -91 -142 -122 -63 -29 -160 -48 -196
-39 -24 6 -27 12 -27 45 0 22 7 68 16 102 16 60 16 180 1 195 -31 31 -196
-125 -250 -236 -93 -190 -61 -359 96 -506 114 -108 225 -147 372 -132 171 17
416 199 535 398 144 240 178 597 90 945 -58 228 -154 414 -301 586 -57 66
-188 179 -207 179 -5 0 -42 -64 -81 -142 -74 -146 -111 -254 -111 -320 0 -46
-19 -43 -50 7 -46 74 -18 226 77 412 31 62 55 114 52 116 -25 20 -278 117
-304 117 -13 0 -39 -104 -61 -250 -15 -100 -14 -230 2 -288 7 -24 7 -24 -24
-8 -38 19 -66 59 -81 111 -17 63 -13 223 9 337 11 57 20 108 20 114 0 28 -225
19 -327 -13 -63 -20 -63 -19 -29 -153 43 -166 80 -261 134 -340 l31 -45 -25
-3 c-92 -12 -192 127 -250 346 -15 53 -29 103 -33 110 -5 9 -24 1 -72 -29 -78
-51 -179 -137 -179 -153 0 -18 128 -235 176 -298 24 -31 63 -72 86 -92 23 -20
38 -39 34 -43 -4 -5 -26 -8 -50 -7 -89 2 -194 100 -296 277 -24 43 -47 76 -50
75 -28 -12 -249 -289 -369 -463 l-62 -89 -168 -1 -169 0 -23 35 c-145 213
-400 534 -413 519 -2 -2 -28 -45 -58 -95 -103 -171 -197 -257 -283 -257 -25 0
-47 2 -50 5 -3 3 23 34 57 69 35 35 80 89 100 119 54 83 138 233 138 246 0 32
-239 204 -251 181 -4 -7 -18 -56 -33 -109 -58 -219 -158 -358 -250 -346 l-25
3 30 45 c54 79 107 218 144 375 23 100 23 101 -37 119 -77 22 -212 36 -287 29z
m-1 -1118 c150 -35 374 -141 449 -212 l44 -42 -6 -75 c-6 -80 -28 -132 -60
-142 -33 -10 -69 6 -182 80 -164 108 -245 179 -307 271 -67 98 -72 111 -50
124 23 14 36 13 112 -4z m2933 3 c16 -12 14 -18 -20 -77 -49 -82 -100 -140
-183 -206 -81 -64 -234 -166 -278 -184 -71 -29 -110 15 -119 135 l-6 75 44 42
c76 72 273 166 434 207 85 22 106 24 128 8z m-2294 -1070 c73 -154 131 -350
131 -446 0 -53 -28 -89 -57 -74 -68 37 -253 355 -253 436 0 77 66 166 122 166
12 0 30 -26 57 -82z m1647 63 c39 -23 74 -94 74 -147 0 -81 -185 -399 -253
-436 -29 -15 -57 21 -57 74 0 96 58 292 131 446 43 89 53 95 105 63z m-1028
-1504 c22 -17 70 -92 77 -119 15 -58 -62 -57 -143 2 -70 50 -87 111 -38 130
25 9 85 2 104 -13z m412 13 c5 0 14 -9 20 -20 8 -15 7 -27 -5 -50 -33 -64
-161 -128 -192 -97 -20 19 -9 54 35 113 37 48 80 69 120 58 8 -2 18 -4 22 -4z"/>
</g>
</svg>
