<svg xmlns="http://www.w3.org/2000/svg" fill="#b3acac" width="512" height="512"><path d="m293 36 2.012.551c34.044 9.489 62.37 33.99 79.738 64.324a148.63 148.63 0 0 1 13.055 111.468c-1.544 5.095-3.441 10.061-5.313 15.044l-1.333 3.574c-4.312 11.52-8.729 23-13.174 34.469q-2.474 6.381-4.94 12.767l-.73 1.888-2.934 7.587a23904 23904 0 0 0-14.034 36.367l-2.528 6.56c-3.987 10.338-7.957 20.682-11.823 31.065l-.881 2.345c-5.908 15.987-4.727 34.49 2.205 49.932 6.87 13.495 16.871 23.733 30.993 29.497 16.695 5.265 32.833 4.089 48.687-3.438 17.002-8.958 27.037-23.038 33-41 3.52-12.172 1.984-27.512-3-39l-1.098-2.652c-6.856-15.085-19.537-26.15-34.652-32.536-6.59-2.304-13.543-2.915-20.458-3.598-7.24-.802-11.073-2.352-16.167-7.714-2.398-5.165-2.379-9.9-1.625-15.5 2.306-4.967 5.235-7.398 10-10 3.12-.575 6.148-.57 9.313-.5l2.666.039c26.83.814 49.482 14.022 67.646 33.211 18.73 21.406 23.835 46.51 22.607 74.07-1.875 25.696-17.17 48.71-36.232 65.18-22.136 17.231-49.14 22.934-76.681 19.684-4.593-.804-8.925-2.113-13.319-3.684l-3.133-1.062c-23.543-8.852-40.34-27.31-50.896-49.684-5.372-12.472-7.176-25.081-7.284-38.567l-.087-3.533c-.129-18.114 6.296-34.026 12.775-50.654q1.258-3.265 2.513-6.531c2.23-5.798 4.475-11.59 6.722-17.382 2.331-6.016 4.651-12.036 6.972-18.056l2.806-7.273 1.4-3.632 6.935-17.97 1.351-3.502q3.772-9.77 7.578-19.526 2.23-5.733 4.444-11.471 1.005-2.596 2.024-5.189c12.726-32.394 14.224-63.348 1.192-96.093-11.502-25.588-32.705-44.78-58.708-54.927-24.74-9.137-52.844-7.684-76.786 3.141-24.956 11.881-44.439 32.745-53.85 58.846-3.538 10.345-6.57 21.093-6.968 32.065l-.156 3.273c-.183 7.128.259 13.993 1.281 21.04l.28 2.11c2.873 17.846 11.207 35.228 17.72 51.952l2.917 7.524 4.492 11.586c5.921 15.254 11.8 30.524 17.662 45.8l1.219 3.178 2.35 6.128q3.364 8.76 6.786 17.499c11.48 29.381 17.028 57.879 5.074 88.285-4.206 9.373-9.009 17.753-15.625 25.625l-1.8 2.242c-13.103 15.68-33.1 25.8-53.2 28.758-27.258 1.61-52.77-2.556-74.332-20.621-18.694-16.668-34.302-38.373-35.845-64.36-.592-30.248 4.508-54.895 25.841-77.648 18.14-18.413 41.055-29.514 67.024-29.871l2.537-.056c5.402.056 8.484 1.003 12.775 4.556 3.628 3.82 4.31 6.883 4.5 12-.19 5.117-.872 8.18-4.5 12-5.214 4.325-9.814 4.763-16.437 5.375-18.17 2.12-32.833 8.966-44.82 23.316C67.173 360.021 64.447 376.2 66 395c2.893 16.923 13.934 30.927 27.258 41.18 14.051 9.327 29.683 12.394 46.234 9.593 15.99-3.525 27.883-11.827 36.637-25.464 6.186-10.94 9.228-21.43 9.246-33.934l.074-2.715c.062-14.63-6.454-28.299-11.727-41.682-1.692-4.296-3.37-8.597-5.05-12.898q-1.325-3.393-2.652-6.785c-6.885-17.6-13.643-35.25-20.41-52.897q-3.557-9.27-7.142-18.528-2.22-5.742-4.429-11.487-1.018-2.642-2.045-5.28c-15.109-38.84-18.35-79.917-1.744-118.978 14.918-33.728 41.01-61.111 75.563-74.875C232.705 29.934 265.206 27.964 293 36"/></svg>