<svg version="1.0" xmlns="http://www.w3.org/2000/svg" width="40" height="40" viewBox="0 0 512 512"><path d="M128.1 46.7c5 24.4 6.2 43.6 3.4 53-1 3.3-3.2 6.9-6.1 10.2-6.8 7.5-13 8.7-26.4 5-15-4.1-30.9-13.3-43.3-24.9-3.5-3.3-6.7-5.7-7.1-5.3-1 1-.7 13.3.5 22 2.2 16.2 9.5 30.9 20.8 42.3 11 11 24.7 19 39.5 23 7.5 2.1 8.8 2.2 19.9 1.1 6.5-.6 13-1.7 14.4-2.4 5.7-3 25.7-35.3 30.8-49.7 4.4-12.4 5.8-29.6 3.1-39.5-4.4-16.8-18-30.3-39.8-39.7-4.8-2.1-9.4-3.8-10.2-3.8-1.1 0-1 1.6.5 8.7M378 40.3c-22 9.1-36.2 21.4-42.1 36.4-3.3 8.6-3.8 24.3-1.1 35.1 3.9 15.3 11.8 30.8 25 49.2 6.5 8.9 7.2 9.6 11.8 10.8 2.7.7 10.3 1.4 16.9 1.5 11.6.2 12.3.1 21.2-3.4 21.9-8.5 37.3-22 46.3-40.4 4.9-10 6.8-18 7.7-31.6.9-15.2.7-15.4-7.6-7.6-19.9 18.7-49.7 30.8-62.4 25.3-4.8-2.1-9.5-7-12-12.3-4.1-9.3-3.3-29.3 2.2-56.5 1.3-6.1 1.5-8.8.7-8.8-.6 0-3.6 1.1-6.6 2.3M128.8 179.6c-3.2 1-5.1 5.6-5.6 13.7-.8 12.8 2.9 29.8 7.8 36.7 3 4.3 6.3 3.9 17.3-1.9 5.2-2.7 11.3-5.5 13.7-6.2 6.1-1.8 7.5-4.5 6.2-11.5-2.5-12-11-23.1-21.5-28-5.1-2.3-14.5-3.8-17.9-2.8m243.4.5c-13.4 2.6-25.4 15.4-28.4 30.4-1.3 6.4.2 9.8 4.9 11 1.5.3 7.6 3.1 13.6 6.1 12.3 6.1 15.6 6.6 18.6 2.8 6.4-8.1 10.4-35.7 6.5-45.2-2.3-5.8-5.7-7-15.2-5.1m-202.7 43.3c-11 2.8-21.4 9.3-24.2 15-3.3 7 1.4 13.1 12.8 16.8 5.7 1.8 7.6 2 10.7 1.2 4.5-1.2 39.2-20.1 39.2-21.4 0-2-7.1-6.1-15.7-8.9-11.2-3.8-16.3-4.4-22.8-2.7m159.6.2c-13.4 2.8-27.2 9.7-24.6 12.3.6.5 6.8 4.2 13.9 8.1 26.2 14.5 27 14.7 37.3 10.8 17-6.3 16.1-17.9-2.2-27-10-5-15.8-6-24.4-4.2m-253.8 6c-4.1 2-8 7.2-10.6 13.8-1.5 3.8-2 7.7-2.1 15.6-.1 11.1 1.2 17.3 4.3 21.2 1.9 2.3 2.1 2.3 22.8 2.2 17.1 0 22.5-.4 30.5-2.1 15.5-3.4 24.8-9.8 24.8-17.2 0-16.7-19.5-28.5-55.3-33.6-12.3-1.8-10.5-1.8-14.4.1m346.8.1c-17.8 2.4-35.5 8.2-44 14.4-8.9 6.4-13.1 16.5-9.8 23.4 5.1 10.6 25.1 15.9 57.8 15.3 16.5-.3 17.1-.4 19-2.6 3-3.8 4.4-10 4.3-20.2 0-12.2-2.2-19.5-7.8-25.6-2.3-2.5-5.4-4.8-7.1-5.3-1.7-.4-7-.2-12.4.6m-177.6 8c-37 4.6-95 31.2-115.6 53-9 9.5-9.6 14.8-3 25.1 15.1 23.1 61.2 49.7 101.2 58.3 15.4 3.3 44.1 3.4 58.8.1 34.9-7.8 68.9-25.6 91.2-47.7 7.7-7.7 12.1-14.3 13.4-20.2 2.2-10.7-18.4-28.3-53-45.3-35.9-17.7-70-26.2-93-23.3m-199 15.2c-10 4.6-24.5 18.3-32.9 31.1-7 10.6-10 19.1-10 28.5 0 4.4.6 9.3 1.3 11l1.2 3 3.7-6.9c6.7-12.7 17.4-22 34.4-29.9 4.3-1.9 8.9-4.7 10.3-6.1 2.4-2.4 2.5-3 2.5-15 0-6.9-.4-13.6-1-15-1.2-3.1-3.8-3.3-9.5-.7M458 252c-2.3 1.4-2.8 27.1-.6 30.4.8 1.3 6.4 4.9 12.4 8 18.4 9.3 26.8 16.8 33.7 29.7 2.9 5.5 3.4 6 4.3 4.2 1.8-3.4 2.4-11.6 1.3-17.8-3.2-17.9-23.7-43.8-41.8-53-5.5-2.7-7-3-9.3-1.5M92.1 292.5c-16.9 5.5-38.3 18.4-39.7 24.1-1.2 4.7 2.3 14.6 7.9 21.9 7.3 9.7 9.1 10.7 18.4 11.3 16.4.8 46.3-9.2 46.3-15.7 0-.9-3.6-7-8.1-13.6l-8-11.8.7-7.9c.5-5.6.3-8.2-.6-9.3-1.8-2.2-8.3-1.8-16.9 1M403 292c-.8 1.5-1 4.6-.5 9.6l.7 7.2-7.5 11c-9.5 14-9.8 14.9-5.9 18.2 6.6 5.5 24.5 10.9 38.4 11.7 8.5.5 10.1.3 14-1.6 10.5-5.2 20.9-26.4 16.4-33.4-5.3-8.1-35.1-22.8-49.2-24.4-4.7-.5-5.3-.3-6.4 1.7M30.5 328.9c-8.6 3.8-18.9 19.2-24.4 36.1-4.8 14.5-7.2 32.3-5.2 37.4.6 1.5 1.7.1 5.6-6.8 12-21.4 31.2-37.6 48.3-40.8 8.9-1.7 8.6-3.3-4-19.5-6.6-8.4-12.1-10.2-20.3-6.4m438-.5c-3.5 1.5-16 17.6-17.1 22-.8 3.3.6 4.6 5.1 4.6 4.1 0 12.6 3.4 19.4 7.7 10.9 7 24.9 23.2 32.1 37.3 2 3.9 2.4 4.2 3.1 2.5 1.3-3.5 1-11.4-1.1-21.3-7.4-36.5-25.8-59.8-41.5-52.8m-343 15.7c-5.7 3.6-21 18.8-22 21.8-1 3.2 2.7 9.1 10.5 16.9 8.3 8.3 5.3 7.7 32.5 6.2 18.2-1 25.3-2.7 29.1-7.2 2.6-3.2 2.5-5.5-.3-11.2-2.3-4.4-10.8-12.3-20-18.3-8.9-5.8-20.1-11.3-23.1-11.3-1 0-4 1.4-6.7 3.1m247.5-.7c-17.2 7.2-35.4 22.2-37.9 31.3-2.9 10.5 9.4 14.8 43.9 15.4l11.5.2 7.6-7.4c7.9-7.7 11.5-13.6 10.4-16.9-.9-2.9-16.1-17.9-21.9-21.8-5.8-3.8-6.4-3.8-13.6-.8M94.5 378.5c-7.2 3-13.7 14-17.7 30.2-3.1 12.2-3.3 42.5-.4 52 2.1 6.9 6.7 13.3 9.7 13.3 1.7 0 1.9-.7 1.9-6.3 0-3.5.9-9.8 1.9-14 1.9-7.1 11.9-28.6 22.7-48.3 2.4-4.5 4.4-8.4 4.4-8.9 0-1-16-17.4-18-18.5-.9-.5-2.8-.3-4.5.5m312.3 5.2c-3.3 3.2-7.3 7.4-8.9 9.5l-2.9 3.6 12.5 24.4c13.4 26.3 16.5 34.9 16.5 46.5 0 5.5.2 6.3 1.9 6.3 2.9 0 7.7-6.2 9.8-12.7 2.8-9 2.6-40.4-.5-52.6-3.1-12.3-7.9-22.4-13-27-5.9-5.2-8.1-4.9-15.4 2"/></svg>