<svg version="1.0" xmlns="http://www.w3.org/2000/svg" width="40" height="40" viewBox="0 0 512 512"><path d="M68 45.4c-17.7 4.9-33.3 20.2-45.2 44.1-6.1 12.2-11.3 25.6-15.3 39.6C2.1 147.9.6 157.5.6 175.5c0 19.5 2 29 9.3 44 12.6 25.8 38.6 44.6 73.2 53 14.6 3.5 15.2 3.4 10.2-1.8-6-6.2-16.5-19.7-22.7-29-15.9-24.2-23.3-48.9-19.7-65.5 2.5-12 10.7-23.3 19.9-27.5 3.9-1.8 6.4-2.2 14.2-2.1 14 .2 25 4.4 44.1 17.3 9.6 6.4 29.8 22.9 34.3 27.9 1.9 2.2 1.9 2.3-3.6 12.9-13.7 26.4-21.8 50.9-21.8 65.9 0 14 7.2 22.5 27.9 32.7 13.1 6.4 18.2 10.1 20.7 14.9q5.4 10.5 8.7 81.6l1.2 25.8 4.7 7.5c5.5 8.7 17.7 20.8 26.1 25.8 10.6 6.3 18.1 8.5 28.7 8.5s18.1-2.2 28.7-8.5c8.4-5 20.6-17.1 26.1-25.8l4.7-7.5 1.2-26c2.1-46.6 5.1-74.5 8.7-81.4 2.5-4.8 7.6-8.5 20.7-14.9 20.7-10.2 27.9-18.7 27.9-32.7 0-14.1-6.5-34.4-19.2-60.4-9.3-19.1-10.1-15.5 6.7-30 11.1-9.5 27.9-21.4 36.4-25.6 11.3-5.7 19.2-7.9 29.1-8 11.5-.1 16.6 1.8 23.4 8.9 20.8 21.4 13 59.8-21 102.7-3.7 4.5-8.5 10.2-10.7 12.6-5 5.1-4.4 5.2 10.2 1.7 29.1-7.1 53.7-22.6 67.3-42.3 4.8-7 10.6-20.3 13-29.8 2.9-11.6 3.1-36 .4-50.2-5-27.2-17.3-58.7-29.9-77-6.3-9.1-18.1-20.3-25.1-23.7-25.9-12.7-56.8-3.3-93.5 28.4-12.2 10.5-17.2 15.4-35.9 35.1-9.2 9.6-18.4 19-20.5 20.7l-3.9 3.3h-89.7l-4.3-3.8c-2.4-2-10.9-10.8-19.1-19.4-39.1-41.4-66-61.5-91.1-67.8-9-2.3-21.6-2.5-28.6-.6"/></svg>