<svg version="1.0" xmlns="http://www.w3.org/2000/svg" width="40" height="40" viewBox="0 0 512 512"><path d="M264.5 4c-34.6 3.6-64.7 16.5-87.4 37.6-18.2 17-29.2 35.1-32.2 53.2l-1.2 7.1-8.5 4.1c-20.1 9.6-36.5 26.5-48 49.5-3.2 6.4-9.2 23.2-9.2 25.8 0 .9-3.1 3.2-7.2 5.5-24.2 13.3-47.3 32.2-58.4 47.8C-1 253.3-3.3 271 5.3 288.3c7.7 15.6 24.5 26.1 47.8 30l7.4 1.3 8.5 11.7c9.7 13.4 8.6 13.7 11-3.5l1.2-8.6 12.6-5c26.9-10.6 51.3-15.8 62.8-13.4 6.3 1.3 12 5.1 13.5 8.9 3.1 8.1-.8 19.3-9.4 26.8-9.8 8.6-31.7 17.6-54.5 22.5-10.3 2.2-10.4 2.2-13 .3-9.4-6.9-13.2-9.4-13.2-8.6 0 .4 1 5.3 2.2 10.7 1.8 8.1 2 10 .9 10.4-3.3 1.1-9.1 7.5-9.7 10.8-1.4 7.7 3.1 16.1 10.5 19.1 10.7 4.5 32.1-1.1 54.7-14.3l4.1-2.4-1.4 6.3c-3.6 17.2-4.7 28.7-4.7 46.7.1 15.3.4 20.1 2.2 27.9 6 26.1 20.2 40.1 43.3 42.6 7.3.8 22.6-.8 30.8-3.2l5.4-1.5-3.4-2.1c-15.2-9.3-21.4-15.3-26.1-25.3-8.2-17.6-1.9-38.8 17.8-59.6 2.6-2.7 5-4.6 5.4-4.1.4.4 1.2 3.9 1.9 7.6 1.7 9.9 5.7 21.9 10.6 32.2 19.3 40.4 53.2 53.5 98.9 38.3 9.9-3.3 29.8-12.5 38.8-17.9l5.6-3.5h-23.1c-18.2 0-24.7-.3-30.3-1.7-20.7-4.8-30.9-14.6-30.7-29.7.1-8.2 3-16.1 8.8-23.7 5.5-7.4 75.2-79.8 76.8-79.8 2 0 5.9 13.5 6.4 22 1.5 25.5-15.2 54.5-45.5 78.9-8.6 7-8.5 7.2 4.6 8.7 12 1.5 23.8-.6 34.2-5.8 9.4-4.7 24.4-19.4 30.6-29.8 16.2-27.8 26.6-64.9 31.2-111.5l1.7-17.5 1.2 6.5c7.6 41.9 1 83.6-18.5 116.5-4.1 7-12.6 18.1-19 24.7l-4.5 4.7 6.9-1.9c47.5-12.6 75.3-42.9 84-91.5 2.2-12.2 2.4-40.9.5-56.5-2.5-19.9-8-43.4-15.8-67.3-1-3.1 1.5-1.8 5.1 2.6 7.5 9.2 13.7 27.5 17.2 50.7.8 5.8 1.8 20.7 2.1 33.2s.9 22.5 1.3 22.3c1.2-.8 6.8-12.8 8.9-19.4 2.8-8.5 6.6-27.1 8.2-40.1 2-15.4 1.7-54.4-.5-69.5-8.9-62-35.4-109.8-79.1-142.7-29.1-21.9-75.2-40-117.9-46.3-13.5-2-36.2-2.7-48.1-1.5M129.1 162.6c10 2.4 22.7 6.8 24.3 8.4 1.4 1.4-6.8 4.7-17.1 7.1-4.9 1-14.3 2.2-21 2.6-10.6.5-12.5.4-14.9-1.2-2.4-1.5-2.6-2.1-2.2-6.7.4-4 1.2-5.7 4-8.5 5.7-5.7 9.7-6 26.9-1.7"/></svg>