<svg version="1.0" xmlns="http://www.w3.org/2000/svg" width="40" height="40" viewBox="0 0 512 512"><path d="M250.9 37.1c-18.9 2.9-32.3 21.3-29 39.6 1.4 7 4.1 12.7 8.7 18.1l3.6 4.2h-4.9c-6.3 0-10.9 2.8-13.3 8.3-1.1 2.3-2 5.1-2 6.2 0 3.8 3.8 10.4 7.2 12.5l3.3 2H153c-67.5 0-71.7.1-74.3 1.8-1.5 1-3.4 2.7-4.2 3.8-1.9 2.4-1.9 10.4-.1 13 1.3 1.8-1.7 8.3-36.6 78.4l-38 76.5.7 6.5c.9 10.1 3.2 17.6 8.5 28.5 10.8 22.3 29.5 38 53.5 45 33.6 9.8 70.9-2.3 91.9-29.8 10.3-13.5 16.4-29.1 17.3-43.7l.5-8.5-36.6-73.3L99.1 153H239v284.9l-60.2.3c-55.5.3-60.6.4-64.3 2.1-11.9 5.3-18.9 20.6-13.5 29.4 1 1.7 2.9 3.8 4.2 4.5 3.4 1.9 298.2 1.9 301.6 0 1.3-.7 3.2-2.8 4.2-4.5 5.4-8.8-1.6-24.1-13.5-29.4-3.7-1.7-8.8-1.8-64.2-2.1l-60.3-.3V153h139l-36 72c-36 72-36 72-36 78.3 0 8.1 3.1 20.2 7.5 29.6 20.9 44 73.3 62.1 117 40.4 26.1-12.9 44.5-39.5 47.1-68.3l.6-6.5-37.6-75.3c-30.8-61.7-37.4-75.6-36.6-77.2 1.5-2.7 1.2-10.2-.5-12.4-.8-1.1-2.7-2.8-4.2-3.8-2.6-1.7-6.8-1.8-74.3-1.8h-71.5l3.3-2c3.4-2.1 7.2-8.7 7.2-12.5 0-1.1-.9-3.9-2-6.2-2.4-5.5-7-8.3-13.3-8.3h-4.9l3.6-4.2c4.6-5.4 7.3-11.1 8.7-18.1 4.1-22.4-16.4-43.1-39.2-39.6M455 238l29 58h-58c-31.9 0-58-.2-58-.3 0-.9 57.1-115.7 57.5-115.7.3 0 13.5 26.1 29.5 58m-311.1 59.7c.1 1-12.1 1.3-57.9 1.3-31.9 0-58-.2-58-.5s13.1-26.7 29.1-58.7l29.1-58.3 28.9 57.5c15.8 31.6 28.8 58.1 28.8 58.7"/></svg>