<svg version="1.0" xmlns="http://www.w3.org/2000/svg" width="40" height="40" viewBox="0 0 512 512"><path d="M58.4 62c-12.1 1.8-24 10.6-29.2 21.8-2.4 5-2.7 6.9-2.7 16.2 0 9.5.3 11.1 2.8 16.2 3.8 7.7 10.7 14.4 18.7 18.2l6.5 3.1 199.5.3c180.4.2 199.9.1 204.9-1.4 11.5-3.3 21.2-12.5 25.3-24.1 2.8-8.1 2.3-20.5-1.4-28.3-5.5-12-16.6-20.1-29.9-22-7.7-1.1-386.9-1.1-394.5 0m-5.6 154.9c-10.7 3.5-18.8 10.5-23.5 20.6-2.5 5.3-2.8 7.1-2.8 16 0 8.7.3 10.7 2.7 15.7 3.1 6.8 9.4 13.8 15.3 17.2 9.8 5.8 5.5 5.6 134.5 5.6 95 0 119.6-.3 124.1-1.4 19.5-4.5 32.5-24.1 29-43.3-2.4-13.1-9.9-23-21.9-28.6l-6.7-3.2-122.5-.2c-116.1-.2-122.8-.1-128.2 1.6M52 370.5c-10.8 3.4-21.4 14.3-24.7 25.4-2.4 8.3-1.5 20.2 2.2 27.7s10.4 14.2 18 18l6 2.9h405l5.7-2.7c7.4-3.4 14.6-10.7 18.4-18.3 2.6-5.5 2.9-6.9 2.9-16.5s-.3-11-2.9-16.5c-3.8-7.6-10.5-14.3-18.1-18.1l-6-2.9-201-.2c-170-.1-201.7 0-205.5 1.2"/></svg>