<svg version="1.0" xmlns="http://www.w3.org/2000/svg"  width="50" height="50" viewBox="0 0 512 512"><path d="M195.5 5.5C133.6 20 78 58.8 42.6 112.5 16.1 152.5 2.2 196 .3 245-2 304.9 17 363 54.8 412c8 10.3 31 33.5 41.1 41.5 4 3.1 12.1 9 18 12.9 84.5 57.1 197.9 57.4 283.2.8 30.4-20.3 56.4-46.9 76.3-78.2 6.4-10 18.6-35.1 23.1-47.4 5.1-13.9 11-37.7 13.1-53.1 2-14.3 2.6-47.6 1-58l-.9-6-1.8 10c-13.4 72.4-61.8 132.3-129.5 159.9-25.5 10.4-46.2 14.6-75.4 15.3-22.5.6-35.8-.7-54.8-5.2-47.5-11.3-89.7-38.6-119.9-77.5-39.8-51.2-53.9-120.5-37.4-183.5C106.2 85 145.1 36.2 198.5 8.3c5.5-2.9 9.3-5.2 8.5-5.2s-6 1.1-11.5 2.4"/></svg>