<svg version="1.0" xmlns="http://www.w3.org/2000/svg" width="40" height="40" viewBox="0 0 512 512"><path d="M219.4 1.9c-4.3 2.6-7.6 9.9-11.8 25.6-5.7 21.4-5.4 21-16.3 22-66.1 5.9-123 64.5-160.9 165.8-12.6 33.8-23.1 74.3-23.6 91.1-.1 6.1.1 6.9 2.8 9.7 5.9 6.2 12.2 7.5 18.3 3.8 2.7-1.6 3.6-1.8 4.2-.7.5.7.9 1.5.9 1.8s.5 3.4 1 7c2.4 16.6-4.2 42.8-22.1 87.8C8.1 425.3 5 433.9 5 435c0 1.5.7 2 2.5 2 1.7 0 5.8-3 13.2-9.5 11.4-10.2 17.8-14.8 26.5-19.3 10.4-5.3 23.6-2.9 48.5 8.8 10.4 4.9 13.7 5.8 14.7 4.1.3-.4-2.5-7.7-6.3-16.2-10.6-23.7-17.3-43.7-21.8-64.9-2.5-12.1-2.5-41.8 0-51 3.6-12.9 9.2-22.6 18-31.4 12.7-12.6 26-19.3 48.6-24.4 11.1-2.5 13-2.6 43-2.7 29.6-.1 31.4-.2 32.7-2 .8-1 1.4-2.9 1.4-4.2s-5.4-24-12-50.4c-6.7-26.5-11.9-48.3-11.8-48.4.2-.1 22.6-14.7 49.8-32.5 45.8-29.8 54-35.6 54-38 0-2.3-36.4-31.1-52.2-41.4-18.5-12-28.5-15.5-34.4-11.7"/><path d="M264.5 99.3c-26.4 18.4-47.9 33.8-47.9 34.3 1 6.1 26 101.7 27.3 103.9 1.6 2.8 2.6 3.2 16.1 6.2 42.3 9.5 80.7 12.2 96.3 6.7 10.8-3.7 7.7-11.3-13.2-32.8-6.4-6.5-10.7-11.5-9.6-11.1 27.1 10.7 39.5 14.5 47.1 14.5 6.1 0 7.2-.7 9.8-5.9 3.8-7.5 4.9-14.4 4.3-25.5-1.3-23.1-15.1-50.9-41.5-83.8C339.5 88.7 317.4 66 314.6 66c-1.1 0-23.6 14.9-50.1 33.3m73.7 46.3c6 4.4 7.8 13.3 4.1 19.6-5.6 9.6-20.5 9.3-25.8-.5-1.3-2.5-1.7-4.7-1.3-8.6.5-5.4 2.2-8.1 7.3-11.3 3.8-2.4 12-2 15.7.8"/><path d="M491.3 84.5c-22.5 19.9-33.2 24.7-47.3 21-7.4-1.9-23.3-8.1-32-12.5-6-3-9.4-3.7-10.4-2.1-.3.4 2.1 6.7 5.3 13.8 10.9 24.1 18 45 22.8 67.3 2.5 12 2.5 41.7 0 51-7.6 27.3-28.3 46.2-59.5 54-16.6 4.2-29.1 5.3-55.6 4.7-23.4-.5-24.9-.4-26.7 1.4-1 1-1.9 3-1.9 4.4s5.4 24.2 12 50.6c6.7 26.5 11.9 48.3 11.8 48.4-.2.1-22.6 14.7-49.8 32.5-45.9 29.9-54 35.6-54 38 0 2.3 36.4 31.1 52.2 41.4 11 7.1 21.5 12.4 26.6 13.2 8.3 1.3 13.2-4.3 17.7-20.6 8.1-29 7.1-27.5 18.2-28.5 10.4-.8 26.9-4.9 37-9.1 53.4-22 98.7-82.3 129.4-172.3 9.4-27.6 17.7-62.4 18-75.2.2-6.8-1.4-9.8-7.1-13.7-4.1-2.7-8.4-2.8-13.5-.2-2.2 1.1-4 2-4.1 2s-.7-1.5-1.2-3.3c-5.2-16.7 1-44.9 20.7-94C503.8 87 507 78.1 507 77c0-1.5-.7-2-2.5-2-1.7 0-5.8 3-13.2 9.5"/><path d="M167.5 259c-13.2 1.6-17.9 3.9-17.7 8.9.1 4.9 5.5 12.4 18.7 26 6.6 6.8 11.3 12.1 10.5 11.8-26.7-10.7-35.9-13.6-45.6-14.4-8.6-.7-9.9.3-13.4 9.3-4.9 12.5-3.5 30.3 3.6 48.8 9.3 24 32.1 56.1 60.5 85 9.7 9.9 12.1 11.8 14 11.4 2.2-.4 93.8-63.2 96.5-66.1 1.5-1.6-24.3-102.5-27.1-106.2-1.8-2.2-4.1-3-18.6-6-23.8-4.9-40.2-7.3-58.4-8.5-8.8-.5-16.2-.9-16.5-.9-.3.1-3.2.5-6.5.9m22.7 82.6c6.3 3.3 8.8 13.6 4.8 20.2-3.2 5.2-7.6 7.4-13.9 6.9-4.8-.3-5.8-.8-9.3-4.5-3.7-4-4.3-6-3.8-12.2.9-10.1 12.3-15.5 22.2-10.4"/></svg>