<svg version="1.0" xmlns="http://www.w3.org/2000/svg" width="40" height="40" viewBox="0 0 512 512"><path d="M171.3 16.9c-2.8.9-6.9 2.9-9.1 4.3-3.8 2.6-4.3 2.6-15.3 2.1-23.3-1.1-50.1 6.2-78.2 21-17.1 9-28.6 17.6-42.3 31.2C15.6 86.3 13.8 88.5 9.6 97c-6.7 13.8-8.9 22.8-9 38-.1 14.8 2 23.7 8.7 36.4 10 19.4 29.8 39.4 51.9 52.7 3.2 1.9 5.8 3.7 5.8 4s-2.4 1.8-5.2 3.4C49.6 238 37.6 250.2 29.7 264c-5.4 9.6-10.7 27.7-10.7 36.7v3.8l2.3-5.5c9.8-23.8 25-42.2 42.5-51.3C78 240.2 92.7 237 112.6 237h12.1l.6-5.2c1-8.3 6.7-19 14.1-26.4 8-7.9 15.9-11.9 27.1-13.5 4.4-.6 8.9-1.2 10-1.5 1.3-.2 2.8-1.9 3.9-4.4 4-9.2 19.8-15 46.1-17.1 2.9-.2-7.8-3-15.2-4-15.1-2-29.5.8-36.7 7.2-4 3.5-7.6 4.9-12.3 4.9-9.8 0-24 6.2-32.9 14.3l-5.3 4.8-9.8-3.6c-13.9-5.2-32.9-14.4-43.1-21.1-12-7.8-23-19-27.3-27.9-3-6.2-3.4-7.9-3.4-15.1 0-7.4.4-8.8 3.8-15.5C53.7 94.3 82 69.5 107 57.6c14.2-6.7 36.8-12.6 48.2-12.6 2.5 0 6.5 2.1 16.1 8.4 7.3 4.9 16.2 9.8 20.8 11.6 7.5 2.9 15.4 4.1 17.7 2.6.5-.3-1.9-3.5-5.4-7-7.9-8.2-9.3-12.6-4.9-16.4 2.6-2.2 3.5-2.4 8.4-1.8 12.3 1.4 27.6 9.1 36 18 4 4.2 5.1 4.5 5.1 1.3 0-7.8-11.1-21-25.6-30.6C202 17 184.6 12.2 171.3 16.9"/><path d="M211.5 175.4c-7.4 1.8-13.9 5.4-19 10.5-2.5 2.4-4.5 4.8-4.5 5.3 0 .4-1.2.8-2.7.8-3.8 0-11.8 2.2-17.8 4.9-13.3 5.9-28.6 21.6-35.6 36.6-3.4 7.1-2.1 6.5-17.4 8-21.5 2.1-46.7 15.3-61.1 32.1-10.9 12.5-19.3 28.5-23.4 44.2-3 11.2-2.5 11.6 2.6 2.2 12.9-24 32.9-44 53.2-53.2 12.4-5.6 23.9-8 41.9-8.5l16.1-.6.7-5.1c2-14.7 14-31.4 29.1-40.6 5.3-3.2 14.7-5.9 20.5-6 2.1 0 2.9-.9 4.8-5.5 2.6-6.3 8.9-12.4 16-15.6 6.4-2.9 21.3-5.9 29.6-5.9 8.4-.1 7.2-1.2-3.5-3.5-8.4-1.8-22.5-1.8-29.5-.1m213.5 8.2c-3 .8-8.8 3-12.9 4.9-8.8 4.2-10.2 4.2-34.6 1.4-23.4-2.8-49.6-3-61-.5-16.8 3.6-70.6 23.2-92 33.6-10.7 5.1-24.2 14.8-33.5 24-10.9 10.8-15.8 19-17.5 29.1-.5 3.1-2.2 4.9-13.3 14.1-28.1 23.4-41.1 39.7-45.8 57.3-1.7 6.1-1.8 18-.3 24.3 1.8 7.8 9.5 22.6 15.7 30.4 9.4 11.7 28 26.4 41.4 32.5 5.5 2.6 5.6 2.7 6.7 8.2 4.3 22 23.7 39.3 54.3 48.4 29.6 8.9 54.6 6.9 80.9-6.3 16.2-8.2 27.9-17.5 43.3-34.7 1.6-1.8 2.7-3.5 2.5-3.8-.3-.2-4.2 1.1-8.7 3-10.2 4.3-32.7 11.8-43 14.4-19.6 4.9-37 5.4-45.2 1.3-5.2-2.6-8.2-6.3-8.2-10 0-4.3 6.6-9.1 24.6-18 15.8-7.7 22.4-12.1 21.2-14.1-.7-1.1-5.1-2-14-3.1-14.8-1.7-39.7 2.7-45.6 8.2-1.6 1.5-2.5 1.8-2.8 1-1-3.1-5.6-7.1-10.4-9.2-6.9-3-21-5.1-31.9-4.8-8.2.2-8.8 0-15.5-3.6-15.2-8.4-28-19.5-35.5-30.9-8.1-12.4-9.3-23.2-3.9-33.8 6.4-12.6 14.4-21.2 38.7-41.2 7.8-6.4 15-12.9 16-14.3l1.9-2.6 12.2 2.3c11.8 2.3 12.2 2.5 14.4 5.8 4.8 7.4 12.8 10.6 25.8 10.5 10 0 16.6-2 23.6-6.9 2.7-1.9 5.2-3.5 5.6-3.5s2.8 2.1 5.3 4.6c10.6 10.5 26.8 14.2 46 10.2 9.6-1.9 24.5-7.2 24.5-8.7 0-.4-3.5-1.3-7.7-2-21.3-3.6-39.1-12.2-43.9-21.3-4.6-8.8 2.7-22.4 14.2-26.8 9.3-3.4 26.2-2.2 35.8 2.6 3.8 1.8 3.6 2 3.6-2.2 0-10.5-20.5-18.5-43.9-17.2-4.8.3-10.1 1.2-11.7 2-2.8 1.4-3 1.3-8.6-3.8-7.5-6.8-15-9.8-23.3-9.1-3.4.2-7.4 1.1-9.1 2-2.4 1.2-3.4 1.3-5.9.3l-3-1.3 8.5-3.2c45.5-17.6 73.3-22.7 100.6-18.7 14.1 2.1 28.1 5.8 36.2 9.6 9.9 4.6 12.1 6.5 13.3 11.8 1.7 7 14.3 19 26.5 25.4 9.5 5 19.7 8.1 24.7 7.6l3.2-.3-3.6-4c-4.5-5-10.2-13.9-11.7-18.4-2-5.7-1.5-9.7 1.6-13.2 2.5-2.8 3.5-3.2 7.5-3.2 11.3.2 29.4 10.8 43.3 25.4 3.3 3.5 6.9 7.9 7.9 9.6 3 5.1 3.9 4 3.2-3.5-3.1-33.3-41.5-69.4-73.5-69.1-4.2 0-10.2.7-13.2 1.5"/><path d="M250.8 184.5c-15.3 2.9-26.4 8.5-33.4 16.9-3.3 4-4.2 4.4-10.5 5.5-14.1 2.3-25.9 8.7-36.8 20-7.3 7.5-15.7 19.9-19.1 28.1-1.3 3-2.6 5.9-3 6.3s-4.9 1.2-10.1 1.8c-39.9 4-69.7 26.2-85.3 63.4-4.8 11.6-8.6 27.3-9.2 38.5l-.5 9.5 4-11.6c7.7-22.7 19-42 32-55C98.5 288.3 120 280 151.1 280h12.6l.6-5.9c.8-7.7 2.5-12.4 7.7-21.6 7.7-13.4 22.8-26.6 34.4-30 2.7-.8 7.5-1.5 10.6-1.5h5.6l2.3-5.4c6.8-16.4 27-24.5 70.6-28.3l8-.6-6.5-1.4c-10-2.1-36.9-2.6-46.2-.8"/></svg>