<svg xmlns="http://www.w3.org/2000/svg" fill="white" width="500" height="512"><path d="M267 90c2.274 3.41 2.44 5.27 2.86 9.309l.432 3.91.224 2.082C275.124 147.418 285.958 192.261 313 226l1.221 1.54c25.509 31.975 61.502 48.198 101.717 52.773q3.528.37 7.062.687l-1 2c-1.8.499-1.8.499-4.172.86l-2.67.432-2.908.458c-39.723 6.8-79.046 24.734-103.54 58.001-2.65 3.757-5.156 7.598-7.602 11.491a269 269 0 0 1-2.94 4.54c-19.13 30.464-26.328 68.945-28.536 104.302l-.175 2.646-.126 2.294C269 470 269 470 267 473l-.364-2.968c-2.549-20.605-5.425-40.9-10.636-61.032l-.706-2.74c-7.42-28.102-20.252-56.005-40.482-77.174C213 327 213 327 212 324.852c-1.292-2.392-2.567-2.715-5-3.852-1.447-1.3-2.86-2.639-4.25-4-22.29-20.331-53.918-30.754-83.533-33.317-1.746-.164-3.484-.415-5.217-.683l-1-2 1.686-.272c33.627-5.521 64.69-15.866 91.314-37.728l2.898-2.375c6.139-5.289 11.156-11.228 16.102-17.625l2.21-2.734C255.747 184.02 264.413 134.889 267 90M89 77c2.441 3.662 2.936 7.2 3.75 11.438 1.64 7.89 4.016 14.636 8.25 21.562l1.367 2.262c6.712 9.953 18.775 16.252 30.258 18.988 4.43.85 8.887 1.323 13.375 1.75v2l-3.078.48c-14.819 2.453-28.593 7.01-38.922 18.52l-2 2.188C94.753 166.379 92.231 177.9 90 190c-1.743-2.998-2.513-5.955-3.241-9.33-3.214-14.728-9.44-28.555-22.509-36.982-8.795-4.848-17.809-7.042-27.73-8.196L34 135l-1-2 3.043-.48c16.645-2.774 32.207-7.762 42.465-22.118C84.868 100.164 87.618 88.885 89 77m333-65h1l.594 3.594c2.801 15.635 7.763 31.247 20.867 41.293C455.158 64.197 466.282 66.57 479 68l-1 2c-2.233.516-4.489.936-6.75 1.313-15.151 2.803-28.652 8.584-37.828 21.496L432 95l-1.172 1.785C426.11 105.041 424.43 115.732 423 125c-2.9-2.9-2.959-6.353-3.687-10.25-2.95-14.383-8.783-26.291-20.938-34.937-9.12-5.815-18.192-8.081-28.855-9.32L367 70l-1-2 2.895-.516c12.117-2.27 25.757-5.015 34.761-14.168C405 52 405 52 407 52l.82-1.746c1.19-2.274 2.555-4.237 4.055-6.316C418.365 34.21 420.125 23.32 422 12M89 387c2.9 2.9 2.959 6.353 3.688 10.25 2.949 14.383 8.782 26.291 20.937 34.938 9.12 5.814 18.192 8.08 28.855 9.32L145 442l1 2-3.078.48c-11.85 1.962-22.094 5.088-31.984 12.188C109 458 109 458 106.875 458.926c-2.39 1.369-2.775 2.579-3.875 5.074q-1.68 2.442-3.375 4.875C93.609 478.255 91.687 489.122 90 500h-1l-.594-3.594c-2.801-15.635-7.763-31.247-20.867-41.293C56.842 447.803 45.718 445.43 33 444l1-2c2.233-.516 4.489-.936 6.75-1.312 15.151-2.804 28.652-8.585 37.828-21.497L80 417l1.172-1.785C85.89 406.959 87.57 396.268 89 387"/></svg>