<svg xmlns="http://www.w3.org/2000/svg" fill="#b3acac" width="512" height="512"><path d="M254 16h5v126l14 1c3.046.609 5.91 1.225 8.875 2.063l2.121.564c1.671.446 3.338.908 5.004 1.373l.51-1.949c1.985-7.435 4.255-14.752 6.63-22.07.4-1.238.8-2.476 1.21-3.75a8749 8749 0 0 1 5.243-16.185l.676-2.084 4.087-12.602a3115 3115 0 0 0 8.09-25.252q2.042-6.463 4.103-12.92.948-2.992 1.88-5.992c.852-2.743 1.725-5.48 2.602-8.216l.74-2.437c.715-2.19.715-2.19 2.229-5.543 1.97-.835 1.97-.835 4-1l2 2-.538 1.638c-9.14 27.845-18.218 55.708-27.107 83.635A2207 2207 0 0 1 294 149l2.264.391c2.459.547 4.29 1.21 6.513 2.351l2.057 1.043 2.103 1.09 2.092 1.066q2.031 1.035 4.056 2.078A743 743 0 0 0 321 161c5.436-6.916 10.707-13.916 15.75-21.125a843 843 0 0 1 13.188-18.312 1859 1859 0 0 0 13.625-18.626l1.61-2.233q3.235-4.489 6.464-8.982A1619 1619 0 0 1 395 60l4 2c-1.627 5.08-4.677 8.953-7.812 13.188l-3.555 4.859-1.835 2.498a1307 1307 0 0 0-6.647 9.184 2012 2012 0 0 1-15.339 21.021 1317 1317 0 0 0-14.246 19.648C341.796 143.325 333.9 154.165 326 165c2.546 2.621 5.022 5.018 7.875 7.313 3.219 2.62 5.836 5.658 8.512 8.82 1.472 1.704 3 3.297 4.613 4.867 14.712-10.478 29.363-21.034 43.891-31.766 7.58-5.594 15.213-11.11 22.858-16.612a5649 5649 0 0 0 9.206-6.65q2.27-1.642 4.544-3.277a794 794 0 0 0 10.638-7.77l1.95-1.436q1.803-1.329 3.588-2.683c1.602-1.173 1.602-1.173 4.325-2.806l3 1 1 3c-7.112 5.866-14.497 11.274-22.018 16.593-3.57 2.534-7.12 5.095-10.67 7.657l-2.278 1.645a2044 2044 0 0 0-16.784 12.292 1323 1323 0 0 1-19.637 14.239 2338 2338 0 0 0-12.988 9.324l-2.235 1.61A830 830 0 0 0 351 191l1.102 1.914C363 212.308 363 212.308 363 218l6.11-1.981 1.98-.642 11.216-3.637q11.33-3.675 22.663-7.344 6.36-2.058 12.719-4.119l2.543-.824a4091 4091 0 0 0 31.082-10.2l6.026-1.997q5.347-1.774 10.684-3.583l4.684-1.552 2.06-.713c3.782-1.234 6.405-1.593 10.233-.408v4l-2.386.772-35.111 11.367c-16.126 5.22-32.252 10.439-48.355 15.728l-3.29 1.08q-7.42 2.433-14.837 4.885l-5.162 1.695-2.319.773c-2.968.97-5.396 1.7-8.54 1.7l.84 2.973 1.098 4.09.552 1.931c1.976 7.51 1.965 13.835 2.51 22.006h126v5H370l-1 14c-.609 3.046-1.225 5.91-2.062 8.875l-.565 2.121A461 461 0 0 1 365 289l2.056.546a407 407 0 0 1 18.917 5.579l2.842.908c8.709 2.784 17.41 5.591 26.112 8.4q10.545 3.404 21.105 6.759 8.074 2.567 16.137 5.165c3.27 1.053 6.542 2.1 9.819 3.133 3.667 1.157 7.326 2.34 10.985 3.526l3.348 1.043 3.035.997 2.658.85C484 327 484 327 484.915 328.995L485 331l-2 2-1.638-.538c-27.845-9.14-55.708-18.218-83.635-27.107A2207 2207 0 0 1 363 294l-.419 1.83c-2.12 8.87-6.984 16.402-11.581 24.17 4.012 4.288 8.4 7.617 13.188 11l4.859 3.473 2.498 1.777c3.808 2.714 7.601 5.45 11.392 8.188l2.24 1.615c6.269 4.53 12.494 9.118 18.715 13.714q8.054 5.942 16.17 11.796l2.21 1.595q5.828 4.203 11.681 8.37l2.465 1.76q2.325 1.662 4.658 3.312c4.011 2.87 7.552 5.796 10.924 9.4l-2 3c-5.08-1.627-8.953-4.677-13.187-7.812l-4.856-3.551-2.498-1.835c-3.804-2.788-7.632-5.544-11.459-8.302l-4.504-3.254q-4.478-3.235-8.96-6.46A2376 2376 0 0 1 381.5 351c-6.38-4.71-12.77-9.404-19.187-14.062l-2.176-1.588c-4.593-3.325-9.29-6.408-14.137-9.35l-1.687 1.906C339.37 333.45 334.305 338.803 329 344l-3 3a1315 1315 0 0 0 20.713 28.837c6.711 9.073 13.3 18.233 19.891 27.392A2577 2577 0 0 0 385.375 429q2.564 3.482 5.125 6.965c1.317 1.787 2.644 3.568 3.973 5.348l1.964 2.687 1.622 2.188L399 448l-1 3-3 1c-6.852-8.24-13.06-16.913-19.294-25.621-2.725-3.8-5.466-7.59-8.206-11.379a9257 9257 0 0 1-9.715-13.465 2572 2572 0 0 0-18.524-25.388C333.11 367.812 327.048 359.412 321 351l-1.953.977q-2.52 1.26-5.043 2.515a591 591 0 0 0-6.164 3.14l-3.152 1.618-2.926 1.516c-2.635 1.177-4.94 1.721-7.762 2.234q3.337 10.502 6.688 21l1.046 3.282a4483 4483 0 0 0 13.97 43.042l1.444 4.38c2.132 6.46 4.267 12.919 6.415 19.373q1.343 4.042 2.676 8.087.922 2.784 1.855 5.562c1.789 5.432 3.393 10.567 3.906 16.274l-5 1c-9.35-28.478-18.637-56.975-27.732-85.537l-1.877-5.889-.891-2.8a725 725 0 0 0-4.779-14.528q-.935-2.736-1.882-5.47C289 368 289 368 289 365l-2.973.84-4.09 1.098-1.931.552c-7.51 1.976-13.835 1.965-22.006 2.51v126h-5V370l-14-1c-3.046-.609-5.91-1.225-8.875-2.062l-2.121-.565A461 461 0 0 1 223 365l-.51 1.949c-1.985 7.435-4.255 14.752-6.63 22.07-.4 1.238-.8 2.476-1.21 3.75a8749 8749 0 0 1-5.243 16.185l-.676 2.084-4.087 12.602a3115 3115 0 0 0-8.09 25.252q-2.042 6.463-4.103 12.92-.948 2.992-1.88 5.992a954 954 0 0 1-2.602 8.216l-.74 2.437c-.715 2.19-.715 2.19-2.229 5.543-1.97.835-1.97.835-4 1l-2-2 .538-1.638c9.14-27.845 18.218-55.708 27.107-83.635A2207 2207 0 0 1 218 363l-1.853-.604-2.441-.802-2.416-.791c-2.958-1.037-5.696-2.361-8.477-3.803l-2.918-1.5L197 354a2115 2115 0 0 0-6-3c-5.436 6.916-10.707 13.916-15.75 21.125a843 843 0 0 1-13.187 18.313 1859 1859 0 0 0-15.236 20.858 7977 7977 0 0 0-6.464 8.982A1619 1619 0 0 1 117 452l-4-2c1.625-5.053 4.634-8.908 7.75-13.125l1.742-2.385q2.746-3.75 5.508-7.49l3.516-4.773q2.622-3.56 5.248-7.116c6.144-8.323 12.193-16.714 18.236-25.111q3.217-4.47 6.438-8.937l1.597-2.219q4.335-6.008 8.754-11.953l1.909-2.57a1381 1381 0 0 1 3.634-4.866c3.231-4.344 6.088-8.693 8.668-13.455l-1.574-1.355C177.738 338.847 171.772 332.704 166 326c-7.2 4.332-13.92 9.103-20.606 14.175a768 768 0 0 1-15.269 11.262l-2.274 1.638Q124.426 355.539 121 358c-9.202 6.62-18.382 13.266-27.5 20l-7.09 5.224a3759 3759 0 0 0-4.933 3.642 2211 2211 0 0 1-7.415 5.447l-2.277 1.689-2.125 1.549-1.855 1.364c-1.926 1.158-3.61 1.655-5.805 2.085l-2-4a671 671 0 0 1 25.066-18.625c10.691-7.6 21.275-15.348 31.825-23.141q8.055-5.943 16.171-11.796l2.201-1.59q5.904-4.257 11.83-8.48l2.52-1.803q2.403-1.72 4.815-3.429l2.17-1.554 1.922-1.368c1.625-1.165 1.625-1.165 2.48-3.214a140 140 0 0 0-4.25-7.687C149 299.123 149 299.123 149 294l-1.98.652c-29.04 9.558-58.086 19.1-87.208 28.41l-3.166 1.014-8.876 2.834-2.572.821A931 931 0 0 1 28 333l-1-5c8.427-3.56 17.061-6.417 25.75-9.254l4.623-1.518q6.085-1.997 12.172-3.987 6.004-1.966 12.006-3.938 10.66-3.499 21.327-6.978 7.265-2.37 14.526-4.753 4.758-1.559 9.517-3.11 2.25-.733 4.497-1.473 3.093-1.015 6.187-2.02l3.536-1.157C144 289 144 289 147 289l-.84-2.973-1.097-4.09-.553-1.931c-1.976-7.51-1.965-13.835-2.51-22.006H16v-5h126l1-14c.609-3.046 1.225-5.91 2.063-8.875l.564-2.121c.446-1.671.908-3.338 1.373-5.004l-1.868-.484c-8.24-2.186-16.335-4.777-24.437-7.418l-4.431-1.438a12592 12592 0 0 1-18.97-6.17l-16.796-5.467a2450 2450 0 0 0-28.373-9.07l-5.278-1.66a940 940 0 0 0-9.206-2.842q-1.972-.62-3.946-1.244l-3.312-1.016C28 185 28 185 27.02 182.987L27 181l2-2c1.223.4 2.445.802 3.705 1.215 26.02 8.529 52.059 16.989 78.152 25.29 12.75 4.062 25.46 8.23 38.143 12.495l.604-1.853.802-2.441.791-2.416c1.037-2.958 2.361-5.696 3.803-8.477l1.5-2.918L158 197q1.505-2.998 3-6c-6.916-5.436-13.916-10.707-21.125-15.75a843 843 0 0 1-18.312-13.187 1859 1859 0 0 0-18.626-13.625l-2.233-1.611a7977 7977 0 0 0-8.982-6.464A1619 1619 0 0 1 60 117l2-4c5.053 1.625 8.908 4.634 13.125 7.75l2.385 1.742Q81.26 125.238 85 128l4.773 3.516q3.56 2.622 7.116 5.248c8.323 6.144 16.714 12.193 25.111 18.236q4.47 3.217 8.938 6.438l2.218 1.597q6.008 4.335 11.953 8.754l2.57 1.909a1381 1381 0 0 1 4.866 3.634c4.344 3.231 8.693 6.088 13.455 8.668l1.355-1.574c5.798-6.688 11.941-12.654 18.645-18.426-4.332-7.2-9.103-13.92-14.175-20.606a767 767 0 0 1-11.262-15.269l-1.636-2.272-3.286-4.57c-2.707-3.766-5.425-7.524-8.141-11.283a9382 9382 0 0 1-9.715-13.465l-3.222-4.472-1.591-2.212a833 833 0 0 0-8.867-12.066l-1.949-2.611a928 928 0 0 0-3.751-4.982l-1.702-2.278-1.51-2.001C113.957 65.933 113.43 64.28 113 62l4-2a671 671 0 0 1 18.625 25.066c7.6 10.691 15.348 21.275 23.141 31.825q5.943 8.055 11.797 16.171l1.589 2.201q4.257 5.904 8.48 11.83l1.803 2.52q1.72 2.403 3.429 4.815l1.554 2.17 1.368 1.922c1.165 1.625 1.165 1.625 3.214 2.48 3.257-1.72 6.388-3.572 9.531-5.488 3.834-2.259 7.456-3.924 11.744-5.156l2.692-.78L218 149l-.652-1.98c-9.558-29.04-19.1-58.086-28.41-87.208l-1.014-3.166-2.834-8.876-.821-2.572A931 931 0 0 1 179 28l5-1c3.675 8.668 6.585 17.571 9.508 26.512l1.592 4.846q1.67 5.08 3.334 10.164 2.083 6.364 4.174 12.726 4.44 13.51 8.85 27.03 1.537 4.71 3.08 9.417 1.806 5.512 3.6 11.028.66 2.028 1.326 4.053a1689 1689 0 0 1 1.801 5.532l1.021 3.13C223 144 223 144 223 147l2.973-.84 4.09-1.097 1.931-.553c7.51-1.976 13.835-1.965 22.006-2.51z"/></svg>