<svg version="1.0" xmlns="http://www.w3.org/2000/svg" width="40" height="40" viewBox="0 0 512 512"><path d="M45.5 38.8C23.6 56.4 8.7 76.7 2.8 97.5c-3.4 12-3.2 30.5.6 43 3.5 11.9 11 26.8 19.4 38.5 7.2 10.2 27.8 31.5 38.1 39.5l6.4 5-11.4.6c-6.3.4-14.5 1.4-18.2 2.3-21.8 5.1-23 14.4-4.3 32.4 17.2 16.5 44.5 30.7 62.6 32.7 9.3 1.1 28.9-5.6 40.2-13.6l2.7-2 .5 3.3c3.1 21.1 4.1 26.8 6.2 35.8 7.9 34.2 21.5 59.9 37.9 71.7l3 2.1-3 1.1c-9.4 3.5-11 6.2-10.2 17.5.5 8.1 2.6 16.1 5.3 20.4l1.5 2.3 2.6-2.1c1.4-1.1 3.7-2 5-2 5.5 0 15 7.3 17.2 13.3 1.8 4.6 1.3 6.7-2.4 10.4l-3.5 3.5 2.6 3.5c6.2 8.1 17 14.7 31.1 18.9 7.8 2.4 10.5 2.7 23.3 2.7s15.5-.3 23.3-2.7c14.2-4.2 24.9-10.8 31.2-19l2.7-3.6-3-2.5c-5.5-4.6-5.1-10.9 1.1-17.3 3.8-4 9.6-7.2 13-7.2 1.3 0 3.6.9 5 2l2.6 2.1 1.5-2.3c2.7-4.3 4.8-12.3 5.3-20.4.8-11.3-.8-14-10.2-17.5l-3-1.1 3-2.1c8.3-6 17.4-17.6 24-30.7 7.2-14.3 14.7-40.3 18-62.5.9-6.1 1.8-12.5 2.1-14.3l.5-3.3 2.7 2c11.3 8 30.9 14.7 40.2 13.6 18-2 45.5-16.3 62.6-32.7 18.7-18 17.5-27.3-4.3-32.4-3.7-.9-11.9-1.9-18.2-2.3l-11.4-.6 6.4-5c10.3-8 30.9-29.3 38.1-39.5 8.4-11.7 15.9-26.7 19.4-38.5 3.7-12.6 4-31.1.6-43-4.7-16.4-14-31.3-28.7-46-9.9-9.9-21.9-19.5-21.1-16.8 1.8 6 4.7 24 5.3 32.5l.6 9.9 6 3c10.5 5.4 18 14 20.1 23.3.6 2.6.1 2.3-6.3-3.5-6.3-5.8-18.9-14.4-19.8-13.6-.2.2-.7 3.5-1.3 7.3-.5 3.8-1.2 8.8-1.6 11-.6 4.2-.6 4.2 4.8 7.6 8.2 5.3 13.6 12.7 15.2 20.7.6 3.3.5 3.3-7.2-4-4.3-4.1-9.6-8.4-11.9-9.7l-4.2-2.3-4.5 8.8-4.5 8.7 4 4.4c2.3 2.4 4.9 6.3 6 8.7 1.8 4.1 3.7 13.5 2.7 13.5-.3 0-2.1-2.4-4.1-5.3-2-2.8-5.8-7.3-8.4-9.9l-4.8-4.7-7.2 7-7.2 7.1 1.8 3.7c3.5 6.8 5.4 14.9 4.7 20.5-1 8-2 8.4-4 1.6-1.6-6.1-7.8-19.4-9.4-20.4-.4-.2-3 .9-5.6 2.6-2.7 1.6-7.5 4.1-10.8 5.5l-5.9 2.6.8 4.1c.4 2.3.8 7.7.8 12.1 0 6.5-.5 8.9-2.5 12.8-4.1 8.1-4.5 7.6-4.6-5.6 0-6.7-.6-14-1.2-16.3l-1.2-4.1-9.8 2.4c-12.1 3-15.5 2.7-30.2-2.6-30.3-11-59.3-15.6-98-15.6-38.4 0-67.9 4.7-98 15.6-14.7 5.3-18.1 5.6-30.2 2.6l-9.8-2.4-1.2 4.1c-.6 2.3-1.2 9.6-1.2 16.3-.1 13.2-.5 13.7-4.6 5.6-2-3.9-2.5-6.3-2.5-12.8 0-4.4.4-9.8.8-12.1l.8-4.1-5.8-2.6c-3.2-1.5-8.1-4-11-5.6-3.9-2.3-5.3-2.7-6.1-1.8-2.2 2.7-6.7 12.6-8.7 19.2l-2.2 7-1.3-5.8c-1.6-6.7-.4-13.4 3.6-21.5l2.4-4.9-7.2-7.1-7.3-7.1-4.8 4.7c-2.6 2.6-6.4 7.1-8.4 9.9-2 2.9-3.8 5.3-4.1 5.3-1 0 .9-9.4 2.7-13.5 1.1-2.4 3.7-6.3 6-8.7l4-4.4-4.5-8.7-4.5-8.8-4.2 2.3c-2.3 1.3-7.6 5.6-11.9 9.7-7.7 7.3-7.8 7.3-7.2 4 1.6-8 7-15.4 15.2-20.7l5.4-3.4-.7-4.7c-.3-2.5-1-7.4-1.5-10.9-.4-3.5-1-6.5-1.2-6.8-.9-.9-13.3 7.5-19.9 13.5-6.4 5.8-6.9 6.1-6.3 3.5 2.1-9.3 9.6-17.9 20.1-23.3l6-3 .7-10.3c.3-5.7 1.7-15.5 3-21.8s2.3-11.6 2.3-11.6c-.1-.1-3.3 2.4-7.2 5.4m115.6 241.5c9.7 15.5 19.1 43.7 17.3 51.5-1.6 6.6-7.1 8.1-13.5 3.6-5.9-4.1-12-14.4-15.8-26.8-2.2-7.2-2.8-18.6-1.2-22.9 1.4-3.6 7-9.7 9-9.7.9 0 2.8 1.9 4.2 4.3m197.7-1.8c4.5 3.7 6.2 8.3 6.2 16.3 0 18.9-13.8 43.2-24.6 43.2-8.1 0-8.9-9.3-2.7-28.5 4.8-14.6 14.3-33.5 16.9-33.5.7 0 2.6 1.1 4.2 2.5"/></svg>