<svg xmlns="http://www.w3.org/2000/svg" width="512" height="512"><path d="M323.085 8.684C345.723 16.616 366.833 30.308 382 49l2.3 2.758c4.892 5.999 9.057 12.23 12.825 18.992l1.124 2.015c7.256 13.405 13.118 27.12 17.813 41.61l.77 2.348c26.145 79.914 15.352 162.283-21.852 237.468-19.597 38.654-47.997 80.88-91.015 95.38-9.428 2.994-19.043 3.802-28.856 4.656-5.333.468-10.66 1.001-15.988 1.53-1.052.105-2.104.208-3.187.315C205.026 461.173 133.864 470.324 95 506q-2.058 1.755-4.125 3.5L88 512c-.942-9.423 2.395-16.242 8.05-23.707 32.374-37.434 92.417-48.424 138.762-57.418 28.59-5.55 57.053-13.854 78.188-34.875l1.887-1.781C322.2 386.723 326.955 375.923 330 366l-2.063 1.617c-33.887 26.047-72.142 39.868-114.5 43.82-38.94 3.743-79.974 18.5-110.437 43.563l-2.738 2.207C93.798 462.675 89.762 468.475 86 476h-2c-.464-8.339-.316-14.744 4-22l1.25-2.164C110.233 418.096 155.698 397.008 193 388c8.851-2.002 17.697-3.02 26.741-3.658 28.25-1.996 57.377-9.814 77.259-31.342 10.96-13.648 15.904-27.692 17-45l-1.438 2.313c-15.593 23.2-39.502 44.147-67.425 50.023-5.135.923-10.287 1.119-15.491 1.311-50.172 2.016-109.992 36-145.826 69.708C82 433 82 433 80 434c1.88-12.118 7.978-22.854 16-32l2.324-2.758c30.761-35.22 79.554-56.102 124.981-62.781 7.576-1.16 13.954-2.675 20.695-6.461l2.656-1.418C265.636 317.537 282.962 297.337 289 276c.612-4.334.658-7.82-1.5-11.687-2.66-2.46-5.46-4.545-8.375-6.688-12.385-9.47-20.629-23.688-28.313-37l-1.364-2.35c-9.363-16.606-16.273-34.126-22.886-51.963-17.56-56.382-17.56-56.382-51.062-102.812-2.323-1.934-3.35-2.941-4.14-5.879-.5-12.226 4.073-23.29 11.64-32.621l2.25-3.187c9.841-10.065 21.97-13.675 35.687-14.063 32.79.375 61.842 19.799 89.061 36.073A67 67 0 0 0 314 46c.617-4.114-.027-6.578-2.313-9.937-11.251-13.695-33.063-19.431-49.184-24.918C257.127 9.284 252.531 7.468 248 4l1-3c18.196-9.098 55.63 1.634 74.085 7.684M325 33c2.222 4.089 4.6 7.905 7.312 11.688 16.024 22.753 23.285 47.676 24.25 75.312l.131 3.504q.159 4.248.307 8.496c8.91-11.266 9.913-28.32 8.437-42-3.737-22.049-17.964-40.765-35.16-54.426-2.273-1.728-2.273-1.728-5.277-2.574m50 50 .48 1.738q.772 2.813 1.532 5.63 1.077 3.951 2.195 7.89c8.276 29.581 10.974 62.79 2.793 92.742l-.715 2.639C376.78 209.635 369.915 224.627 360 238l1 2c20.324-14.284 35.7-31.143 40.547-56.215L402 181l.39-2.191c4.976-32.405-9.03-67.554-25.39-94.809z"/><path d="M169.438 73.5c11.36 6.65 15.405 33.176 19.167 44.994 7.856 24.598 16.248 48.824 28.43 71.677a325 325 0 0 1 3.031 5.93c9.981 19.676 22.876 38.585 37.93 54.743 1.862 2.003 3.621 4.062 5.379 6.156 4.436 5.117 9.556 9.527 14.625 14-8.411 18.82-28.745 30.297-47.137 37.73-10.977 4.175-22.384 6.877-33.863 9.27l-3.602.754c-16.231 2.824-37.1 4.1-52.023-4.004-4.854-3.423-6.192-8.11-7.25-13.75-.545-5.907 2.32-10.196 5.5-14.937 2.632-4.04 3.119-7.283 3.375-12.063l-3.395.14q-2.209.057-4.417.11l-2.237.102c-5.446.098-5.446.098-8.002-2.18C124 270 124 270 124.625 267c1.23-2.682 2.478-4.758 4.375-7l-1.812-.812c-3.824-2.076-4.912-3.31-6.25-7.563L121 248a737 737 0 0 1 4.484-3.514c2.7-2.646 3.43-5.915 4.391-9.486l.64-2.117c1.076-3.7 1.741-7.029 1.485-10.883l-3.613-.55-4.7-.762-2.38-.358-2.295-.38-2.11-.334c-2.32-.751-3.368-1.744-4.902-3.616-1.464-5.968.477-11.125 3.309-16.336 2.531-3.988 5.422-7.661 8.41-11.316 6.054-8.334 8.113-17.179 9.394-27.253 8.823-68.428 8.823-68.428 27.946-84.943 4.665-3.414 4.665-3.414 8.379-2.652M138 161c-.23 4.017-.23 4.017 0 8 2.659 2.659 4.663 2.261 8.281 2.273l2.469-.023 2.422.023c4.67-.015 8.438-.489 12.828-2.273v-2c-12.864-7.164-12.864-7.164-26-6"/></svg>